<?xml version="1.0" standalone="no"?><!-- Generator: Gravit.io --><svg xmlns="http://www.w3.org/2000/svg" xmlns:xlink="http://www.w3.org/1999/xlink" style="isolation:isolate" viewBox="0 0 188.724 27.236" width="188.724" height="27.236"><defs><clipPath id="_clipPath_psew6zuZlVDZ83Auatmux15j7zbWWoN6"><rect width="188.724" height="27.236"/></clipPath></defs><g clip-path="url(#_clipPath_psew6zuZlVDZ83Auatmux15j7zbWWoN6)"><g><path d=" M 47.686 4.916 C 47.686 4.657 47.78 3.824 47.966 3.641 C 48.154 3.455 48.377 3.241 48.634 3.241 L 50.058 3.241 L 51.869 3.241 L 52.208 3.241 C 52.736 3.241 53.143 3.019 53.428 2.676 C 53.714 2.334 53.602 2.305 53.858 1.797 L 51.869 1.797 L 50.058 1.797 L 47.599 1.797 C 46.856 1.797 46.202 2.078 45.635 2.643 C 45.066 3.207 44.783 3.861 44.783 4.603 L 44.783 7.885 L 44.783 8.808 L 44.783 8.936 C 44.783 9.847 45.033 10.495 45.534 10.882 C 46.036 11.269 46.851 11.464 47.778 11.464 C 47.762 11.372 47.747 11.235 47.733 11.053 C 47.717 10.885 47.706 10.658 47.699 10.371 C 47.691 10.082 47.686 9.709 47.686 8.764 L 47.686 7.358 L 50.058 7.358 L 51.735 7.358 L 52.208 7.358 C 52.736 7.358 53.143 7.15 53.428 6.802 C 53.714 6.459 53.602 6.473 53.858 5.913 L 51.735 5.913 L 50.058 5.913 L 47.686 5.913 L 47.686 5.859 L 47.686 4.916 Z " fill="rgb(249,249,249)"/><path d=" M 122.533 11.474 C 123.219 11.474 123.817 11.192 124.332 10.626 C 124.846 10.062 125.103 9.406 125.103 8.658 L 125.103 5.323 L 125.103 3.719 L 125.103 3.283 C 125.103 2.941 125.105 2.66 125.114 2.443 C 125.12 2.225 125.131 2.053 125.145 1.928 C 125.159 1.791 125.174 1.688 125.188 1.618 C 124.302 1.618 123.633 1.765 123.173 2.055 C 122.717 2.348 122.445 2.839 122.445 3.526 L 122.445 3.719 L 122.445 5.104 L 122.445 9.08 C 122.445 9.332 122.358 9.553 122.187 9.741 C 122.016 9.934 121.814 10.029 121.585 10.029 L 119.785 10.029 L 119.785 3.366 L 119.785 3.078 C 119.785 3.078 119.785 2.284 119.248 2.284 L 117.736 2.284 C 117.127 2.284 117.127 3.117 117.127 3.117 L 117.127 3.366 L 117.127 10.029 L 115.336 10.029 C 115.107 10.029 114.903 9.934 114.73 9.741 C 114.555 9.553 114.468 9.332 114.468 9.08 L 114.468 5.104 L 114.468 3.719 L 114.468 3.526 C 114.468 2.839 114.196 2.348 113.738 2.055 C 113.28 1.765 112.611 1.618 111.725 1.618 C 111.739 1.688 111.752 1.791 111.768 1.928 C 111.781 2.053 111.793 2.225 111.798 2.443 C 111.806 2.66 111.81 2.941 111.81 3.283 L 111.81 3.719 L 111.81 5.323 L 111.81 8.658 C 111.81 9.406 112.068 10.062 112.586 10.626 C 113.104 11.192 113.702 11.474 114.389 11.474 L 122.533 11.474 Z " fill="rgb(249,249,249)"/><path d=" M 90.402 10.882 C 90.904 11.269 91.721 11.464 92.646 11.464 C 92.63 11.372 92.616 11.235 92.601 11.053 C 92.585 10.886 92.574 10.659 92.567 10.371 C 92.559 10.081 92.557 9.71 92.557 9.253 L 92.555 9.097 L 92.557 9.097 L 92.557 7.604 L 93.839 7.604 L 96.182 10.231 C 96.182 10.231 96.386 10.468 96.688 10.774 C 96.94 11.029 97.231 11.176 97.493 11.288 C 97.756 11.399 98.04 11.468 98.344 11.499 C 98.608 11.53 98.833 11.53 99.018 11.499 C 99.204 11.468 99.362 11.429 99.496 11.378 C 99.626 11.318 99.955 11.224 100.059 11.135 C 99.882 11.013 99.711 10.872 99.544 10.71 C 99.391 10.569 99.246 10.398 99.069 10.208 C 99.034 10.17 98.984 10.114 98.925 10.049 L 95.614 6.164 L 95.878 5.818 L 99.401 2.072 C 99.401 2.072 97.831 1.42 96.333 2.338 C 95.726 2.712 95.797 2.708 95.207 3.358 C 94.57 4.061 93.744 4.913 92.995 5.666 L 92.557 5.666 L 92.557 5.501 L 92.557 3.903 L 92.557 3.463 C 92.557 3.12 92.567 2.84 92.576 2.621 C 92.584 2.404 92.596 2.231 92.613 2.105 C 92.627 1.97 92.641 1.865 92.658 1.797 C 91.692 1.797 90.963 1.944 90.465 2.235 C 89.968 2.527 89.652 3.018 89.652 3.705 L 89.652 3.903 L 89.652 5.283 L 89.652 7.884 L 89.652 8.936 L 89.652 9.097 L 89.657 9.097 C 89.685 9.923 89.933 10.519 90.402 10.882 Z " fill="rgb(249,249,249)"/><path d=" M 69.735 6.156 L 69.735 3.242 L 72.669 3.242 C 72.921 3.242 73.139 3.335 73.327 3.523 C 73.514 3.709 73.609 4.417 73.609 4.67 C 73.609 4.935 73.516 5.658 73.337 5.855 C 73.155 6.057 72.932 6.156 72.669 6.156 L 69.735 6.156 Z  M 74.471 11.327 C 74.731 11.439 75.013 11.508 75.311 11.541 C 75.572 11.57 75.707 11.57 75.886 11.541 C 76.065 11.508 76.219 11.468 76.347 11.417 C 76.473 11.358 76.861 11.254 76.958 11.162 C 76.783 11.04 76.588 10.837 76.418 10.674 C 76.264 10.534 76.034 10.33 75.881 10.15 C 75.815 10.074 75.717 9.964 75.602 9.838 L 73.606 7.603 C 74.392 7.603 75.073 7.329 75.649 6.78 C 76.224 6.233 76.51 5.568 76.51 4.788 L 76.51 4.622 C 76.51 3.874 76.228 3.215 75.663 2.647 C 75.098 2.081 74.44 1.797 73.685 1.797 L 66.833 1.797 L 66.833 7.885 L 66.833 8.936 C 66.833 9.847 67.084 10.495 67.584 10.883 C 68.084 11.269 68.904 11.464 69.831 11.464 C 69.813 11.372 69.8 11.235 69.785 11.053 C 69.769 10.885 69.758 10.659 69.751 10.371 C 69.744 10.081 69.735 9.71 69.735 9.254 L 69.735 8.936 L 69.735 7.603 L 70.704 7.603 L 71.467 8.457 L 71.465 8.457 C 71.964 9.042 72.417 9.508 72.747 9.892 C 73.08 10.276 73.383 10.582 73.661 10.813 C 73.94 11.046 74.21 11.218 74.471 11.327 Z " fill="rgb(249,249,249)"/><path d=" M 64.919 5.501 L 64.919 4.101 L 64.919 3.463 C 64.919 3.12 64.933 2.84 64.941 2.622 C 64.95 2.404 64.961 2.232 64.976 2.105 C 64.992 1.969 65.007 1.865 65.023 1.797 C 64.058 1.797 63.328 1.944 62.831 2.235 C 62.333 2.526 62.016 3.017 62.016 3.705 L 62.016 4.101 L 62.016 5.283 L 62.016 10.029 L 59.093 10.029 C 58.841 10.029 58.619 9.933 58.43 9.741 C 58.239 9.553 58.144 9.332 58.144 9.08 L 58.144 5.501 L 58.144 4.101 L 58.144 3.463 C 58.144 3.12 58.158 2.84 58.166 2.622 C 58.174 2.404 58.185 2.232 58.201 2.105 C 58.217 1.969 58.23 1.865 58.248 1.797 C 57.281 1.797 56.553 1.944 56.054 2.235 C 55.557 2.526 55.241 3.017 55.241 3.705 L 55.241 4.101 L 55.241 5.283 L 55.241 8.658 C 55.241 9.406 55.523 10.062 56.088 10.627 C 56.653 11.193 57.309 11.474 58.059 11.474 L 64.149 11.474 C 64.149 11.474 64.52 11.452 64.711 11.24 C 64.916 11.013 64.919 10.73 64.919 10.73 L 64.919 5.501 Z " fill="rgb(249,249,249)"/><path d=" M 80.728 11.474 L 86.818 11.474 C 86.818 11.474 87.192 11.453 87.381 11.24 C 87.587 11.014 87.589 10.73 87.589 10.73 L 87.589 5.5 L 87.589 4.101 L 87.589 3.462 C 87.589 3.12 87.603 2.84 87.612 2.622 C 87.62 2.405 87.631 2.232 87.645 2.104 C 87.663 1.969 87.677 1.865 87.693 1.797 C 86.728 1.797 85.998 1.944 85.501 2.235 C 85.003 2.527 84.686 3.018 84.686 3.705 L 84.686 4.101 L 84.686 5.283 L 84.686 10.029 L 81.763 10.029 C 81.511 10.029 81.291 9.934 81.1 9.741 C 80.91 9.553 80.814 9.332 80.814 9.08 L 80.814 5.5 L 80.814 4.101 L 80.814 3.462 C 80.814 3.12 80.829 2.84 80.837 2.622 C 80.843 2.405 80.854 2.232 80.872 2.104 C 80.887 1.969 80.902 1.865 80.917 1.797 C 79.951 1.797 79.224 1.944 78.725 2.235 C 78.229 2.527 77.911 3.018 77.911 3.705 L 77.911 4.101 L 77.911 5.283 L 77.911 8.658 C 77.911 9.406 78.194 10.062 78.758 10.626 C 79.324 11.192 79.979 11.474 80.728 11.474 Z " fill="rgb(249,249,249)"/><path d=" M 103.588 4.181 C 103.588 3.922 103.682 3.702 103.87 3.517 C 104.056 3.334 104.28 3.241 104.536 3.241 L 106.519 3.241 C 106.769 3.241 106.988 3.334 107.176 3.523 C 107.361 3.709 107.458 3.928 107.458 4.181 L 107.458 7.207 L 103.588 7.207 L 103.588 4.181 Z  M 103.579 9.279 L 103.588 9.279 L 103.588 9.019 L 103.588 8.651 L 107.458 8.651 L 107.458 9.019 L 107.458 9.169 L 107.462 9.169 C 107.489 10.001 107.735 10.602 108.208 10.968 C 108.708 11.355 109.489 11.547 110.415 11.547 C 110.4 11.457 110.384 11.32 110.371 11.138 C 110.354 10.972 110.365 10.741 110.358 10.454 C 110.349 10.167 110.358 9.624 110.358 9.169 L 110.358 4.622 C 110.358 3.868 110.075 3.208 109.512 2.644 C 108.947 2.078 108.288 1.797 107.532 1.797 L 103.521 1.797 C 102.759 1.797 102.098 2.078 101.533 2.644 C 100.967 3.208 100.686 3.868 100.686 4.622 L 100.686 9.279 C 100.687 9.708 100.694 10.19 100.686 10.454 C 100.677 10.741 100.69 10.972 100.676 11.138 C 100.66 11.32 100.644 11.457 100.631 11.547 C 101.555 11.547 102.337 11.355 102.838 10.968 C 103.289 10.618 103.534 10.053 103.579 9.279 Z " fill="rgb(249,249,249)"/><path d=" M 129.285 7.207 L 129.285 4.181 C 129.285 3.922 129.379 3.701 129.567 3.517 C 129.753 3.334 129.977 3.241 130.234 3.241 L 132.218 3.241 C 132.469 3.241 132.688 3.334 132.875 3.522 C 133.063 3.709 133.157 3.928 133.157 4.181 L 133.157 7.207 L 129.285 7.207 Z  M 136.07 11.138 C 136.057 10.971 136.068 10.741 136.06 10.454 C 136.049 10.167 136.06 9.624 136.06 9.17 L 136.06 4.622 C 136.06 3.868 135.779 3.208 135.212 2.644 C 134.648 2.079 133.989 1.797 133.232 1.797 L 129.217 1.797 C 128.457 1.797 127.794 2.079 127.228 2.644 C 126.664 3.208 126.383 3.868 126.383 4.622 L 126.383 9.278 C 126.384 9.709 126.39 10.189 126.383 10.454 C 126.373 10.741 126.387 10.971 126.371 11.138 C 126.358 11.32 126.341 11.458 126.325 11.547 C 127.251 11.547 128.033 11.355 128.534 10.969 C 128.984 10.618 129.23 10.052 129.275 9.278 L 129.285 9.278 L 129.285 9.019 L 129.285 8.652 L 133.157 8.652 L 133.157 9.019 L 133.157 9.17 L 133.162 9.17 C 133.189 10.001 133.434 10.602 133.908 10.969 C 134.408 11.355 135.19 11.547 136.116 11.547 C 136.101 11.458 136.085 11.32 136.07 11.138 Z " fill="rgb(249,249,249)"/><path d=" M 116.224 19.511 L 116.224 17.753 L 116.224 17.472 C 116.224 17.126 116.237 16.846 116.244 16.628 C 116.252 16.411 116.264 16.239 116.28 16.112 C 116.294 15.976 116.311 15.872 116.326 15.804 C 115.364 15.804 114.644 15.951 114.145 16.242 C 113.648 16.534 113.332 17.025 113.332 17.712 L 113.332 17.753 L 113.332 19.291 L 113.332 22.04 L 113.332 23.62 L 113.332 23.867 L 113.347 23.867 C 113.414 24.425 113.711 24.832 114.145 25.087 C 114.644 25.381 115.364 25.526 116.326 25.526 C 116.311 25.457 116.294 25.355 116.28 25.218 C 116.264 25.09 116.252 24.919 116.244 24.701 C 116.237 24.483 116.224 24.205 116.224 23.86 L 116.224 21.821 L 116.224 19.511 Z " fill="rgb(249,249,249)"/><path d=" M 104.686 20.211 L 104.686 20.036 L 104.686 17.296 L 107.616 17.296 C 107.865 17.296 108.086 17.389 108.273 17.575 C 108.46 17.763 108.555 18.47 108.555 18.723 C 108.555 18.987 108.466 19.712 108.281 19.91 C 108.104 20.111 107.881 20.211 107.616 20.211 L 104.686 20.211 Z  M 110.828 24.207 C 110.758 24.125 110.646 24 110.519 23.861 L 108.553 21.658 C 109.339 21.658 110.018 21.383 110.598 20.837 C 111.17 20.288 111.456 19.621 111.456 18.841 L 111.456 18.676 C 111.456 17.929 111.175 17.268 110.611 16.702 C 110.046 16.133 109.386 15.848 108.633 15.848 L 101.784 15.848 L 101.784 21.939 L 101.784 22.991 C 101.784 23.902 102.032 24.55 102.533 24.938 C 103.033 25.327 103.855 25.519 104.78 25.519 C 104.764 25.429 104.747 25.293 104.732 25.109 C 104.721 24.944 104.707 24.715 104.699 24.426 C 104.693 24.138 104.686 23.766 104.686 23.31 L 104.686 22.991 L 104.686 21.656 L 105.653 21.656 L 106.413 22.509 L 106.411 22.509 C 106.763 22.922 107.088 23.272 107.365 23.579 L 107.924 24.207 L 107.925 24.207 C 108.168 24.472 108.397 24.693 108.607 24.87 C 108.887 25.101 109.155 25.273 109.418 25.385 C 109.677 25.497 109.959 25.565 110.256 25.595 C 110.518 25.626 110.652 25.626 110.835 25.595 C 111.014 25.565 111.165 25.525 111.294 25.474 C 111.42 25.415 111.81 25.309 111.907 25.218 C 111.732 25.096 111.538 24.892 111.365 24.733 C 111.211 24.588 110.982 24.388 110.828 24.207 Z " fill="rgb(249,249,249)"/><path d=" M 58.328 17.545 C 58.516 17.364 58.736 17.273 58.993 17.273 L 61.507 17.273 L 61.507 17.271 L 61.589 17.271 C 62.116 17.271 62.523 17.05 62.81 16.706 C 63.096 16.364 63.051 16.357 63.241 15.832 L 58.946 15.832 L 58.946 15.834 L 57.964 15.834 C 57.225 15.834 56.57 16.117 56.005 16.677 C 55.44 17.242 55.158 17.891 55.158 18.63 L 55.158 22.658 C 55.158 23.413 55.44 24.068 56.005 24.63 C 56.57 25.193 57.23 25.474 57.981 25.474 L 58.946 25.474 L 61.507 25.474 L 61.589 25.474 C 62.116 25.474 62.523 25.251 62.81 24.909 C 63.096 24.566 63.051 24.563 63.241 24.036 L 61.507 24.036 L 58.993 24.036 C 58.75 24.036 58.531 23.94 58.34 23.748 C 58.146 23.555 58.051 23.336 58.051 23.093 L 58.051 21.374 L 58.946 21.374 L 61.507 21.374 L 61.589 21.374 C 62.116 21.374 62.523 21.153 62.81 20.808 C 63.096 20.466 63.051 20.46 63.241 19.936 L 61.507 19.936 L 58.946 19.936 L 58.051 19.936 L 58.051 18.207 C 58.051 17.951 58.142 17.731 58.328 17.545 Z " fill="rgb(249,249,249)"/><path d=" M 76.457 17.545 C 76.647 17.364 76.865 17.273 77.122 17.273 L 79.639 17.273 L 79.639 17.271 L 79.718 17.271 C 80.244 17.271 80.653 17.05 80.936 16.706 C 81.226 16.364 81.181 16.357 81.369 15.832 L 77.074 15.832 L 77.074 15.834 L 76.091 15.834 C 75.353 15.834 74.698 16.117 74.133 16.677 C 73.567 17.242 73.286 17.891 73.286 18.63 L 73.286 22.658 C 73.286 23.413 73.567 24.068 74.133 24.63 C 74.698 25.193 75.358 25.474 76.11 25.474 L 77.074 25.474 L 79.639 25.474 L 79.718 25.474 C 80.244 25.474 80.653 25.251 80.936 24.909 C 81.226 24.566 81.181 24.563 81.369 24.036 L 79.639 24.036 L 77.122 24.036 C 76.878 24.036 76.66 23.94 76.467 23.748 C 76.273 23.555 76.178 23.336 76.178 23.093 L 76.178 21.374 L 77.074 21.374 L 79.639 21.374 L 79.718 21.374 C 80.244 21.374 80.653 21.153 80.936 20.808 C 81.226 20.466 81.181 20.46 81.369 19.936 L 79.639 19.936 L 77.074 19.936 L 76.178 19.936 L 76.178 18.207 C 76.178 17.951 76.273 17.731 76.457 17.545 Z " fill="rgb(249,249,249)"/><path d=" M 68.634 24.036 C 68.382 24.036 68.163 23.941 67.972 23.751 C 67.782 23.563 67.688 23.342 67.688 23.093 L 67.688 19.51 L 67.701 19.511 L 67.701 17.472 C 67.701 17.127 67.714 16.848 67.725 16.628 C 67.731 16.412 67.744 16.239 67.758 16.114 C 67.774 15.977 67.789 15.874 67.805 15.805 C 66.839 15.805 66.11 15.951 65.612 16.241 C 65.113 16.536 64.796 17.026 64.796 17.711 L 64.796 18.031 L 64.796 19.29 L 64.796 22.669 C 64.796 23.412 65.077 24.068 65.64 24.63 C 66.202 25.193 66.857 25.474 67.602 25.474 L 68.213 25.474 L 70.522 25.474 L 70.857 25.474 C 71.384 25.474 71.792 25.251 72.079 24.909 C 72.364 24.567 72.281 24.527 72.508 24.036 L 70.522 24.036 L 68.634 24.036 Z " fill="rgb(249,249,249)"/><path d=" M 86.098 17.545 C 86.282 17.364 86.503 17.273 86.764 17.273 L 88.855 17.273 L 88.855 17.271 L 88.988 17.271 C 89.515 17.271 89.92 17.05 90.209 16.706 C 90.494 16.364 90.448 16.357 90.638 15.832 L 86.344 15.832 L 86.344 15.834 L 85.729 15.834 C 84.992 15.834 84.339 16.117 83.772 16.677 C 83.21 17.242 82.925 17.891 82.925 18.63 L 82.925 22.658 C 82.925 23.413 83.21 24.068 83.772 24.63 C 84.339 25.193 84.999 25.474 85.75 25.474 L 88.75 25.474 L 88.75 25.461 L 88.988 25.461 C 89.515 25.461 89.92 25.238 90.209 24.896 C 90.494 24.554 90.448 24.547 90.638 24.023 L 86.632 24.023 C 86.435 23.994 86.258 23.907 86.104 23.751 C 85.914 23.563 85.816 23.342 85.816 23.093 L 85.816 18.207 C 85.816 17.951 85.912 17.731 86.098 17.545 Z " fill="rgb(249,249,249)"/><path d=" M 121.201 17.545 C 121.386 17.364 121.607 17.273 121.865 17.273 L 123.956 17.273 L 123.956 17.271 L 124.091 17.271 C 124.616 17.271 125.024 17.05 125.31 16.706 C 125.597 16.364 125.553 16.357 125.741 15.832 L 121.445 15.832 L 121.445 15.834 L 120.834 15.834 C 120.092 15.834 119.44 16.117 118.874 16.677 C 118.312 17.242 118.028 17.891 118.028 18.63 L 118.028 22.658 C 118.028 23.413 118.312 24.068 118.874 24.63 C 119.44 25.193 120.098 25.474 120.853 25.474 L 123.847 25.474 L 123.847 25.461 L 124.091 25.461 C 124.616 25.461 125.024 25.238 125.31 24.896 C 125.597 24.554 125.553 24.547 125.741 24.023 L 121.733 24.023 C 121.535 23.994 121.359 23.907 121.201 23.751 C 121.015 23.563 120.919 23.342 120.919 23.093 L 120.919 18.207 C 120.919 17.951 121.012 17.731 121.201 17.545 Z " fill="rgb(249,249,249)"/><path d=" M 96.094 15.833 L 96.02 15.833 L 93.456 15.833 L 93.379 15.833 C 92.851 15.833 92.443 16.056 92.158 16.399 C 91.872 16.741 91.914 16.746 91.727 17.274 L 93.456 17.274 L 94.641 17.274 L 94.641 21.895 L 94.641 22.943 L 94.641 23.503 L 94.679 23.503 C 94.764 24.125 94.999 24.59 95.39 24.892 C 95.891 25.279 96.713 25.474 97.638 25.474 C 97.623 25.382 97.607 25.247 97.593 25.065 C 97.579 24.896 97.566 24.668 97.557 24.381 C 97.552 24.092 97.531 23.719 97.531 23.264 L 97.531 21.385 L 97.531 17.274 L 98.531 17.274 L 98.531 17.271 L 98.735 17.271 C 99.265 17.271 99.674 17.05 99.96 16.706 C 100.243 16.364 100.2 16.358 100.387 15.833 L 96.094 15.833 L 96.094 15.833 Z " fill="rgb(249,249,249)"/><path d=" M 22.508 1.821 L 0 19.273 L 9.061 19.332 L 22.48 6.315 L 35.722 19.51 L 44.782 19.57 L 22.508 1.821 Z " fill="rgb(249,249,249)"/><path d=" M 33.965 19.643 L 32.285 18.048 L 29.565 19.468 L 15.214 19.374 L 12.522 17.915 L 10.814 19.489 C 10.182 20.118 10.588 21.236 10.842 21.818 C 11.107 22.405 11.37 23.218 11.893 24.385 C 12.417 25.548 13.527 25.505 14.358 25.076 C 16.921 24.228 20.002 23.665 22.365 23.676 C 24.722 23.694 27.795 24.297 30.347 25.181 C 31.171 25.621 32.285 25.681 32.82 24.525 C 33.36 23.361 33.637 22.552 33.902 21.965 C 34.167 21.392 34.587 20.279 33.965 19.643 Z " fill="rgb(249,249,249)"/><path d=" M 160.802 15.879 L 161.349 13.359 L 166.847 13.359 L 165.265 20.801 L 165.265 20.801 Q 163.956 21.25 162.838 21.411 L 162.838 21.411 L 162.838 21.411 Q 161.72 21.572 160.47 21.572 L 160.47 21.572 L 160.47 21.572 Q 157.941 21.572 156.564 20.137 L 156.564 20.137 L 156.564 20.137 Q 155.187 18.701 155.187 16.016 L 155.187 16.016 L 155.187 16.016 Q 155.187 13.398 156.232 11.284 L 156.232 11.284 L 156.232 11.284 Q 157.277 9.17 159.171 8.022 L 159.171 8.022 L 159.171 8.022 Q 161.066 6.875 163.546 6.875 L 163.546 6.875 L 163.546 6.875 Q 165.675 6.875 167.55 7.842 L 167.55 7.842 L 166.427 10.293 L 166.427 10.293 Q 165.704 9.902 164.982 9.668 L 164.982 9.668 L 164.982 9.668 Q 164.259 9.434 163.409 9.434 L 163.409 9.434 L 163.409 9.434 Q 161.915 9.434 160.738 10.244 L 160.738 10.244 L 160.738 10.244 Q 159.562 11.055 158.893 12.554 L 158.893 12.554 L 158.893 12.554 Q 158.224 14.053 158.224 15.781 L 158.224 15.781 L 158.224 15.781 Q 158.224 17.461 158.932 18.247 L 158.932 18.247 L 158.932 18.247 Q 159.64 19.033 161.105 19.033 L 161.105 19.033 L 161.105 19.033 Q 161.847 19.033 162.765 18.799 L 162.765 18.799 L 163.409 15.879 L 160.802 15.879 L 160.802 15.879 Z  M 171.28 21.377 L 168.302 21.377 L 171.349 7.1 L 174.327 7.1 L 171.28 21.377 L 171.28 21.377 Z  M 178.898 15.732 L 177.716 21.377 L 174.737 21.377 L 177.755 7.1 L 185.704 7.1 L 185.177 9.58 L 180.216 9.58 L 179.445 13.262 L 184.064 13.262 L 183.517 15.732 L 178.898 15.732 L 178.898 15.732 Z " fill-rule="evenodd" fill="rgb(249,249,249)"/></g></g></svg>